<svg width="120" height="121" viewBox="0 0 120 121" fill="none" xmlns="http://www.w3.org/2000/svg">
<g clip-path="url(#clip0_113_334)">
<path d="M6.06112 0.5L0 6.55697L10.6774 25.0093L17.6017 23.9944L59.8679 66.2364L56.2627 69.6962C54.4162 71.5414 54.4162 74.3369 56.2627 76.1822L58.1369 78.0597C59.9834 79.9049 62.8085 79.9049 64.1934 78.0597L69.6774 83.5354C69.2158 86.3033 69.6774 89.5924 71.9856 91.8989L96.9409 116.694C102.019 121.769 110.328 121.769 115.406 116.694C121.407 111.159 121.352 102.883 116.274 97.8083L91.4615 72.8654C89.1533 70.5588 85.862 69.6362 83.0922 70.5588L77.0311 65.0831C78.416 63.2379 78.416 60.4147 77.0311 59.0261L75.3 57.3008C74.8804 56.8635 74.3766 56.5155 73.8189 56.2778C73.2612 56.0401 72.6611 55.9176 72.0548 55.9176C71.4485 55.9176 70.8485 56.0401 70.2908 56.2778C69.7331 56.5155 69.2292 56.8635 68.8096 57.3008L65.7813 60.327L23.5151 18.0897L24.5214 11.17L6.06112 0.5ZM96.0777 0.643005C86.9699 -0.113539 74.8938 5.92037 69.2435 11.1654C62.2915 18.1127 63.4271 27.1959 68.9527 35.9653L59.1478 45.7681L66.0722 53.5504C69.7652 50.3212 75.2123 50.3212 78.9053 53.5504L80.7841 55.4233L81.218 55.8569L85.2572 51.8205C93.6034 56.7242 102.291 57.43 108.915 50.8102C115.378 44.8132 122.386 30.0237 119.154 21.2589L106.173 34.6645C104.327 36.5097 101.529 36.5097 99.683 34.6645L86.2636 21.2589C85.826 20.8395 85.4777 20.336 85.2399 19.7787C85.002 19.2214 84.8794 18.6218 84.8794 18.0159C84.8794 17.41 85.002 16.8103 85.2399 16.253C85.4777 15.6957 85.826 15.1922 86.2636 14.7729L99.6876 1.36726C98.5335 0.961308 97.3795 0.753719 96.0777 0.643005ZM45.2991 58.1635L28.5606 74.8859C26.7617 74.4881 24.9236 74.2947 23.0812 74.3092C10.1557 74.3092 0 84.458 0 97.3746C0 110.291 10.1557 120.44 23.0812 120.44C36.0066 120.44 46.1623 110.291 46.1623 97.3746C46.1623 95.0081 45.7884 92.7339 45.1514 90.598L54.9609 80.7952L53.5206 78.9223C49.8276 75.2319 49.8553 69.6408 53.0867 65.9457L45.2991 58.1635ZM81.0749 79.213C81.652 79.213 82.1967 79.3237 82.6583 79.7896L109.926 107.034C110.85 107.957 110.85 109.424 109.926 110.347C109.003 111.269 107.526 111.269 106.603 110.347L79.3438 83.1018C78.4206 82.1792 78.4206 80.7122 79.3438 79.7896C79.8055 79.3283 80.4979 79.213 81.0749 79.213ZM26.2571 85.4037L35.0557 94.2008L31.8797 106.163L19.9098 109.336L11.1067 100.539L14.2826 88.5775L26.2571 85.4037Z" fill="#333333"/>
</g>
<defs>
<clipPath id="clip0_113_334">
<rect width="120" height="120" fill="white" transform="translate(0 0.5)"/>
</clipPath>
</defs>
</svg>
