<svg width="120" height="121" viewBox="0 0 120 121" fill="none" xmlns="http://www.w3.org/2000/svg">
<path d="M45.8599 43.8333C49.2199 39.7667 54.3066 37.1667 59.9999 37.1667C65.6933 37.1667 70.7799 39.7667 74.1399 43.8333C76.3521 46.5154 77.756 49.7712 78.1879 53.2209C78.6198 56.6707 78.0619 60.1721 76.5793 63.3168C75.0967 66.4614 72.7505 69.1197 69.8144 70.9815C66.8783 72.8433 63.4733 73.8319 59.9966 73.8319C56.52 73.8319 53.115 72.8433 50.1788 70.9815C47.2427 69.1197 44.8965 66.4614 43.4139 63.3168C41.9313 60.1721 41.3734 56.6707 41.8053 53.2209C42.2372 49.7712 43.6411 46.5154 45.8533 43.8333M84.9933 55.5C84.9933 51.2867 83.9533 47.3133 82.1133 43.8333H110C112.652 43.8333 115.196 44.8869 117.071 46.7623C118.946 48.6376 120 51.1812 120 53.8333V57.1667C120 67.7467 111.96 78.58 97.8999 82.3933C96.4551 79.7979 94.3428 77.6357 91.7817 76.1307C89.2206 74.6257 86.3038 73.8326 83.3333 73.8333H76.9999C79.5268 71.4953 81.5422 68.6594 82.919 65.5041C84.2959 62.3488 85.0044 58.9426 84.9999 55.5M83.3333 80.5C84.6475 80.4965 85.9494 80.7527 87.1643 81.254C88.3791 81.7553 89.4829 82.4918 90.4122 83.4211C91.3415 84.3504 92.0779 85.4542 92.5792 86.669C93.0805 87.8839 93.3368 89.1858 93.3333 90.5V93.8333C93.3333 106.973 80.9333 120.5 59.9999 120.5C39.0666 120.5 26.6666 106.973 26.6666 93.8333V90.5C26.6631 89.1858 26.9193 87.8839 27.4206 86.669C27.9219 85.4542 28.6584 84.3504 29.5877 83.4211C30.517 82.4918 31.6208 81.7553 32.8356 81.254C34.0505 80.7527 35.3524 80.4965 36.6666 80.5H83.3333ZM-6.10352e-05 57.1667C-6.10352e-05 67.7467 8.03994 78.58 22.0999 82.3933C23.5448 79.7979 25.6571 77.6357 28.2182 76.1307C30.7793 74.6257 33.6961 73.8326 36.6666 73.8333H42.9999C40.4731 71.4953 38.4577 68.6594 37.0809 65.5041C35.704 62.3488 34.9955 58.9426 34.9999 55.5C34.9999 51.2867 36.0399 47.3133 37.8866 43.8333H9.99994C7.34777 43.8333 4.80423 44.8869 2.92887 46.7623C1.05351 48.6376 -6.10352e-05 51.1812 -6.10352e-05 53.8333V57.1667ZM51.6666 18.8333C51.6666 13.971 49.7351 9.30788 46.2969 5.86971C42.8587 2.43154 38.1956 0.5 33.3333 0.5C28.471 0.5 23.8078 2.43154 20.3696 5.86971C16.9315 9.30788 14.9999 13.971 14.9999 18.8333C14.9999 23.6956 16.9315 28.3588 20.3696 31.797C23.8078 35.2351 28.471 37.1667 33.3333 37.1667C38.1956 37.1667 42.8587 35.2351 46.2969 31.797C49.7351 28.3588 51.6666 23.6956 51.6666 18.8333ZM105 18.8333C105 13.971 103.068 9.30788 99.6302 5.86971C96.1921 2.43154 91.5289 0.5 86.6666 0.5C81.8043 0.5 77.1411 2.43154 73.703 5.86971C70.2648 9.30788 68.3333 13.971 68.3333 18.8333C68.3333 23.6956 70.2648 28.3588 73.703 31.797C77.1411 35.2351 81.8043 37.1667 86.6666 37.1667C91.5289 37.1667 96.1921 35.2351 99.6302 31.797C103.068 28.3588 105 23.6956 105 18.8333Z" fill="#333333"/>
</svg>
