<svg width="98" height="121" viewBox="0 0 98 121" fill="none" xmlns="http://www.w3.org/2000/svg">
<path d="M18.2775 30.919C18.2775 22.8513 20.8998 15.1142 25.5676 9.4095C30.2354 3.70485 36.5663 0.5 43.1675 0.5C49.7687 0.5 56.0996 3.70485 60.7674 9.4095C65.4352 15.1142 68.0575 22.8513 68.0575 30.919C68.0575 38.9866 65.4352 46.7237 60.7674 52.4284C56.0996 58.1331 49.7687 61.3379 43.1675 61.3379C36.5663 61.3379 30.2354 58.1331 25.5676 52.4284C20.8998 46.7237 18.2775 38.9866 18.2775 30.919ZM56.7439 64.1033H97.473V95.2633C97.4722 98.0209 96.909 100.735 95.8344 103.16C94.7599 105.584 93.2077 107.643 91.3183 109.151L77.1084 120.5L62.8985 109.151C61.0091 107.643 59.457 105.584 58.3824 103.16C57.3078 100.735 56.7447 98.0209 56.7439 95.2633V64.1033ZM47.693 111.114H0.175674V100.053C0.175674 91.2519 3.0364 82.8113 8.12853 76.5881C13.2207 70.3648 20.1271 66.8686 27.3284 66.8686H47.693V111.114Z" fill="#333333"/>
</svg>
