<svg width="63" height="63" viewBox="0 0 63 63" fill="none" xmlns="http://www.w3.org/2000/svg">
<circle cx="31.5" cy="31.5" r="31.5" fill="white"/>
<path d="M25 15.3334H39C44.3333 15.3334 48.6666 19.6667 48.6666 25V39C48.6666 41.5638 47.6482 44.0226 45.8353 45.8354C44.0225 47.6483 41.5637 48.6667 39 48.6667H25C19.6666 48.6667 15.3333 44.3334 15.3333 39V25C15.3333 22.4363 16.3518 19.9775 18.1646 18.1647C19.9775 16.3518 22.4362 15.3334 25 15.3334ZM24.6666 18.6667C23.0753 18.6667 21.5492 19.2988 20.424 20.4241C19.2988 21.5493 18.6666 23.0754 18.6666 24.6667V39.3334C18.6666 42.65 21.35 45.3334 24.6666 45.3334H39.3333C40.9246 45.3334 42.4507 44.7012 43.576 43.576C44.7012 42.4508 45.3333 40.9247 45.3333 39.3334V24.6667C45.3333 21.35 42.65 18.6667 39.3333 18.6667H24.6666ZM40.75 21.1667C41.3025 21.1667 41.8324 21.3862 42.2231 21.7769C42.6138 22.1676 42.8333 22.6975 42.8333 23.25C42.8333 23.8026 42.6138 24.3325 42.2231 24.7232C41.8324 25.1139 41.3025 25.3334 40.75 25.3334C40.1974 25.3334 39.6675 25.1139 39.2768 24.7232C38.8861 24.3325 38.6666 23.8026 38.6666 23.25C38.6666 22.6975 38.8861 22.1676 39.2768 21.7769C39.6675 21.3862 40.1974 21.1667 40.75 21.1667ZM32 23.6667C34.2101 23.6667 36.3297 24.5447 37.8925 26.1075C39.4553 27.6703 40.3333 29.7899 40.3333 32C40.3333 34.2102 39.4553 36.3298 37.8925 37.8926C36.3297 39.4554 34.2101 40.3334 32 40.3334C29.7898 40.3334 27.6702 39.4554 26.1074 37.8926C24.5446 36.3298 23.6666 34.2102 23.6666 32C23.6666 29.7899 24.5446 27.6703 26.1074 26.1075C27.6702 24.5447 29.7898 23.6667 32 23.6667ZM32 27C30.6739 27 29.4021 27.5268 28.4644 28.4645C27.5268 29.4022 27 30.674 27 32C27 33.3261 27.5268 34.5979 28.4644 35.5356C29.4021 36.4733 30.6739 37 32 37C33.3261 37 34.5978 36.4733 35.5355 35.5356C36.4732 34.5979 37 33.3261 37 32C37 30.674 36.4732 29.4022 35.5355 28.4645C34.5978 27.5268 33.3261 27 32 27Z" fill="#333333"/>
</svg>
