<svg width="63" height="63" viewBox="0 0 63 63" fill="none" xmlns="http://www.w3.org/2000/svg">
<circle cx="31.5" cy="31.5" r="31.5" fill="white"/>
<path d="M28.6667 37L37.3167 32L28.6667 27V37ZM47.9333 23.95C48.15 24.7334 48.3 25.7834 48.4 27.1167C48.5167 28.45 48.5667 29.6 48.5667 30.6L48.6667 32C48.6667 35.65 48.4 38.3334 47.9333 40.05C47.5167 41.55 46.55 42.5167 45.05 42.9334C44.2667 43.15 42.8333 43.3 40.6333 43.4C38.4667 43.5167 36.4833 43.5667 34.65 43.5667L32 43.6667C25.0167 43.6667 20.6667 43.4 18.95 42.9334C17.45 42.5167 16.4833 41.55 16.0667 40.05C15.85 39.2667 15.7 38.2167 15.6 36.8834C15.4833 35.55 15.4333 34.4 15.4333 33.4L15.3333 32C15.3333 28.35 15.6 25.6667 16.0667 23.95C16.4833 22.45 17.45 21.4834 18.95 21.0667C19.7333 20.85 21.1667 20.7 23.3667 20.6C25.5333 20.4834 27.5167 20.4334 29.35 20.4334L32 20.3334C38.9833 20.3334 43.3333 20.6 45.05 21.0667C46.55 21.4834 47.5167 22.45 47.9333 23.95Z" fill="#333333"/>
</svg>
