<svg width="63" height="63" viewBox="0 0 63 63" fill="none" xmlns="http://www.w3.org/2000/svg">
<circle cx="31.5" cy="31.5" r="31.5" fill="white"/>
<path d="M49.4333 22C48.15 22.5833 46.7667 22.9666 45.3333 23.15C46.8 22.2666 47.9333 20.8666 48.4667 19.1833C47.0833 20.0166 45.55 20.6 43.9333 20.9333C42.6167 19.5 40.7667 18.6666 38.6667 18.6666C34.75 18.6666 31.55 21.8666 31.55 25.8166C31.55 26.3833 31.6167 26.9333 31.7333 27.45C25.8 27.15 20.5167 24.3 17 19.9833C16.3833 21.0333 16.0333 22.2666 16.0333 23.5666C16.0333 26.05 17.2833 28.25 19.2167 29.5C18.0333 29.5 16.9333 29.1666 15.9667 28.6666V28.7166C15.9667 32.1833 18.4333 35.0833 21.7 35.7333C20.6514 36.0215 19.5501 36.0615 18.4833 35.85C18.936 37.2708 19.8226 38.514 21.0184 39.4048C22.2142 40.2957 23.6591 40.7894 25.15 40.8166C22.6228 42.8175 19.49 43.899 16.2667 43.8833C15.7 43.8833 15.1333 43.85 14.5667 43.7833C17.7333 45.8166 21.5 47 25.5333 47C38.6667 47 45.8833 36.1 45.8833 26.65C45.8833 26.3333 45.8833 26.0333 45.8667 25.7166C47.2667 24.7166 48.4667 23.45 49.4333 22Z" fill="#333333"/>
</svg>
